<svg width="16" height="18" viewBox="0 0 16 18" fill="none" xmlns="http://www.w3.org/2000/svg">
<path d="M1.21582 17V16C1.21582 14.1435 1.95332 12.363 3.26607 11.0503C4.57883 9.7375 6.3593 9 8.21582 9M8.21582 9C10.0723 9 11.8528 9.7375 13.1656 11.0503C14.4783 12.363 15.2158 14.1435 15.2158 16V17M8.21582 9C9.27669 9 10.2941 8.57857 11.0442 7.82843C11.7944 7.07828 12.2158 6.06087 12.2158 5C12.2158 3.93913 11.7944 2.92172 11.0442 2.17157C10.2941 1.42143 9.27669 1 8.21582 1C7.15495 1 6.13754 1.42143 5.38739 2.17157C4.63725 2.92172 4.21582 3.93913 4.21582 5C4.21582 6.06087 4.63725 7.07828 5.38739 7.82843C6.13754 8.57857 7.15495 9 8.21582 9Z" stroke="#D6CFCA" stroke-width="1.5" stroke-linecap="round" stroke-linejoin="round"/>
</svg>
