<svg width="21" height="22" viewBox="0 0 21 22" fill="none" xmlns="http://www.w3.org/2000/svg">
<path d="M18.5 8L16.505 19.346C16.4236 19.8094 16.1815 20.2292 15.8212 20.5317C15.4609 20.8342 15.0055 21 14.535 21H6.465C5.99454 21 5.53913 20.8342 5.17882 20.5317C4.81852 20.2292 4.57639 19.8094 4.495 19.346L2.5 8M19.5 5H13.875M13.875 5V3C13.875 2.46957 13.6643 1.96086 13.2892 1.58579C12.9141 1.21071 12.4054 1 11.875 1H9.125C8.59457 1 8.08586 1.21071 7.71079 1.58579C7.33571 1.96086 7.125 2.46957 7.125 3V5M13.875 5H7.125M1.5 5H7.125" stroke="#D6CFCA" stroke-width="1.5" stroke-linecap="round" stroke-linejoin="round"/>
</svg>
