<svg width="21" height="18" viewBox="0 0 21 18" fill="none" xmlns="http://www.w3.org/2000/svg">
<path d="M19.9998 6.05173C20.003 7.37778 19.4399 8.65342 18.4285 9.61086C16.1095 11.792 13.8599 14.0662 11.4555 16.1672C10.9035 16.6412 10.0286 16.624 9.50131 16.1285L2.57106 9.61172C0.476313 7.6417 0.476313 4.46175 2.57106 2.49259C3.06615 2.0212 3.6616 1.64592 4.32133 1.3895C4.98106 1.13308 5.69132 1.00086 6.40906 1.00086C7.1268 1.00086 7.83706 1.13308 8.49679 1.3895C9.15652 1.64592 9.75198 2.0212 10.2471 2.49259L10.4998 2.72872L10.7515 2.49259C11.2476 2.02232 11.8432 1.64772 12.5027 1.39125C13.1622 1.13477 13.872 1.0017 14.5895 1C16.0335 1 17.4139 1.53775 18.4275 2.49259C19.4393 3.44989 20.0028 4.72555 19.9998 6.05173Z" stroke="#FFF7F1" stroke-width="1.875" stroke-linejoin="round"/>
</svg>
